<svg xmlns="http://www.w3.org/2000/svg" width="124.848" height="107.554" viewBox="0 0 124.848 107.554"><path fill="#818385" d="M12.86 101.375h11.766c2.023 0 3.592-.52 4.716-1.57 1.115-1.047 1.674-2.53 1.674-4.45 0-1.875-.56-3.33-1.674-4.337-1.123-1.015-2.693-1.518-4.716-1.518H12.86v11.875zm0-16.666h10.86c1.6 0 2.93-.457 3.992-1.363 1.065-.904 1.6-2.208 1.6-3.91 0-1.922-.48-3.27-1.438-4.048-.964-.783-2.34-1.172-4.154-1.172H12.86v10.49zM6.2 68.787h18.476c3.412 0 6.145.78 8.204 2.34 2.057 1.563 3.086 3.923 3.086 7.083 0 1.917-.465 3.56-1.41 4.927-.938 1.366-2.28 2.42-4.02 3.17v.104c2.344.498 4.122 1.61 5.328 3.33 1.2 1.72 1.81 3.88 1.81 6.47 0 1.492-.268 2.884-.802 4.178-.532 1.297-1.368 2.417-2.498 3.356-1.142.943-2.595 1.69-4.367 2.238-1.776.55-3.89.823-6.34.823H6.2V68.788zM58.548 93.012c-.923.606-2.055.97-3.404 1.093-1.352.124-2.706.31-4.052.558-.638.107-1.262.26-1.862.453-.605.194-1.138.464-1.6.798-.462.34-.824.785-1.088 1.333-.265.553-.4 1.216-.4 1.997 0 .673.196 1.244.583 1.706.39.462.86.823 1.41 1.088.554.27 1.156.454 1.81.56.66.11 1.254.162 1.79.162.67 0 1.4-.09 2.178-.268.787-.175 1.523-.477 2.21-.904.698-.427 1.276-.968 1.73-1.625.467-.657.695-1.463.695-2.426v-4.525zm6.064 7.672c0 .744.107 1.278.295 1.597.198.316.583.478 1.15.478h.637c.248 0 .536-.035.856-.107v4.21c-.212.07-.486.15-.827.235-.337.09-.688.172-1.04.242-.356.073-.71.124-1.07.162-.347.033-.652.053-.903.053-1.24 0-2.27-.25-3.085-.75-.82-.494-1.35-1.363-1.597-2.607-1.207 1.17-2.688 2.023-4.45 2.557-1.754.53-3.448.8-5.08.8-1.252 0-2.43-.17-3.57-.506-1.14-.342-2.14-.836-3.01-1.49-.868-.66-1.563-1.493-2.077-2.506-.514-1.013-.77-2.192-.77-3.538 0-1.706.313-3.092.933-4.16.62-1.06 1.437-1.896 2.452-2.5 1.01-.603 2.147-1.04 3.41-1.305 1.26-.265 2.524-.47 3.804-.613 1.097-.213 2.148-.363 3.14-.452.996-.087 1.87-.24 2.635-.454.762-.212 1.363-.54 1.814-.982.44-.443.663-1.11.663-2 0-.78-.183-1.418-.562-1.915-.37-.493-.83-.878-1.38-1.147-.552-.265-1.164-.44-1.835-.53-.684-.09-1.317-.134-1.918-.134-1.705 0-3.11.357-4.213 1.064-1.1.71-1.72 1.813-1.863 3.304h-6.063c.1-1.776.525-3.248 1.274-4.422.75-1.17 1.695-2.11 2.85-2.82 1.153-.712 2.457-1.208 3.914-1.49 1.457-.286 2.944-.43 4.477-.43 1.346 0 2.676.144 3.993.43 1.312.282 2.492.744 3.538 1.38 1.05.64 1.892 1.464 2.534 2.477.64 1.013.95 2.247.95 3.702v14.17zM69.893 79.274h5.75v4.046l.105.11c.925-1.53 2.136-2.726 3.62-3.597 1.494-.87 3.145-1.304 4.957-1.304 3.013 0 5.396.782 7.132 2.344 1.74 1.562 2.612 3.906 2.612 7.027v18.905h-6.072V89.498c-.073-2.163-.53-3.734-1.385-4.713-.85-.974-2.18-1.465-3.992-1.465-1.033 0-1.95.188-2.774.56-.815.373-1.505.888-2.072 1.547-.57.657-1.01 1.427-1.335 2.316-.314.888-.476 1.828-.476 2.82v16.242h-6.07v-27.53zM99.344 68.788h6.067v21.616l10.968-11.13h7.46l-10.55 10.12 11.56 17.41h-7.408l-8.412-13.364-3.617 3.517v9.848h-6.066"/><path fill="#076BAC" d="M111.715 58.134v-34.52h13.132V4.317H77.43v19.3h13.04v34.518"/><path fill="#076BAC" d="M56.284 23.615H77.48v34.527H56.283z"/><path fill="#969799" d="M56.284 23.664V0h25.89"/><path fill="#076BAC" d="M28.59 59.228c13.327 0 24.518-9.108 27.645-21.48H36.32c-1.94 2.13-4.69 3.414-7.73 3.414-5.832 0-10.522-4.7-10.522-10.48 0-5.74 4.69-10.433 10.523-10.433 3.04 0 5.79 1.327 7.73 3.415h19.915C53.108 11.285 41.917 2.18 28.59 2.18 12.8 2.18 0 14.986 0 30.68 0 46.47 12.8 59.23 28.59 59.23"/></svg>