<svg xmlns="http://www.w3.org/2000/svg" viewBox="0 0 120.2 60.5">
	<text>Denny's Diner Logo</text>
	<desc>One color Denny's wordmark</desc>
	<path fill="#B41F24" d="M60.1,60.5L7.3,48L0,14.4L60.1,0l60.1,14.4L112.9,48L60.1,60.5z M9.7,45.6l50.4,12l50.4-12l6.3-29.1L60.1,2.9L3.4,16.5L9.7,45.6z"/><path fill="#B41F24" d="M39,39.2c-4.1,0.4-6.8-3.2-7.5-10.1C30.9,22.2,33,18,37,17.7c4.4-0.4,6.9,2.7,7.5,9.6c0,0.4,0.1,1,0.1,1.5l-8,0.7c0,0.1,0.1,0.7,0.1,0.8c0.3,2.9,1,4.2,2.1,4.1c0.8-0.1,1.4-1.4,1.5-2.9l4.3-0.4C44.7,35.8,42.5,38.9,39,39.2z M39.8,25.8c-0.2-2.5-0.9-3.8-2.1-3.7c-0.9,0.1-1.6,1.5-1.4,4L39.8,25.8z"/><path fill="#B41F24" d="M96,23.6c-0.1,0.1-0.3,0.1-0.2-0.2c0.5-1,1.5-3.5,1.5-3.5c-0.2-0.1-0.5-0.2-0.8-0.3c-1.7-0.7-1.7-2.6-1.6-3c0.2-1.4,1.4-2.7,3-2.5c1.6,0.2,2.7,1.7,2.4,3.8C99.9,21.3,97.7,22.3,96,23.6z"/><path fill="#B41F24" d="M100.5,36.2c0.9,0.2,1.7-0.3,1.8-1.1c0.1-0.7-0.7-1.7-1.4-2.8c-1.9-2.7-3.2-4.6-2.6-7.2c0.7-3.4,3.7-5.3,7.4-4.6c1.4,0.3,2.8,1,4.3,2.1l-1,4.7c-1.1-1.4-2.5-2.4-3.5-2.6c-1.4-0.3-2.4,1.1-1.4,2.7c0.3,0.4,0.7,0.9,1.1,1.4c2.1,2.6,3.3,4.2,2.7,7.2c-0.8,3.9-4,6-8.2,5.1c-1.6-0.3-3-1.1-4.4-2.5l1.1-5.6C98,34.8,99.6,36,100.5,36.2z"/><path fill="#B41F24" d="M61,38l-0.9-1.9l-0.5-13.6c-0.1-3.6-1.5-5.4-3.8-5.3c-1.8,0.1-3,1.2-3.9,3.6l-0.1-3l-6.5,0.3l1.3,2.1l0.6,16.1l-1.2,2.3l6.5-0.3l-0.5-12.6c0-1.3,0.5-2,1.1-2.1c0.7,0,1.1,0.6,1.2,1.8l0.5,12.8L61,38z"/><path fill="#B41F24" d="M15.3,17.2l-6.5,1.1l2,2.4L14.2,40l-1.1,2.9l8-1.4c6.8-1.2,9.4-5.9,8.1-14C27.9,20.3,24.8,15.6,15.3,17.2z M20.8,35.9c-0.1,0-0.4,0.1-1.2,0.2l-2.4-14C18,22,18.3,22,18.4,22c2.4-0.4,3.7,2.2,4.4,6.5C23.6,32.7,23.1,35.5,20.8,35.9z"/><polygon fill="#B41F24" points="95.1,19.4 86.9,18.7 87.9,20.9 84.9,32.8 83.7,20.6 84.9,18.5 76.7,17.8 78.1,20.1 81.4,37.4 80.5,40.8 78.6,43.2 85.3,43.8 93.3,21.4"/><path fill="#B41F24" d="M76.9,38.6l-1.1-2L76.1,23c0.1-3.6-1.2-5.5-3.4-5.6c-1.8-0.1-3.1,1-4.2,3.3l0.1-3l-6.5-0.2l1.2,2.2l-0.5,16.1l-1,2.2l6.1,0.2l0.4-12.7c0-1.3,0.6-2,1.3-2c0.7,0,1.1,0.6,1.1,1.9l-0.4,12.8L76.9,38.6z"/><path fill-rule="evenodd" clip-rule="evenodd" fill="#B41F24" d="M92.7,44.5c0.9,0,1.6-0.7,1.6-1.6c0-0.9-0.7-1.6-1.6-1.6c-0.9,0-1.6,0.7-1.6,1.6C91.1,43.8,91.8,44.5,92.7,44.5z M92.7,41.7c0.6,0,1.2,0.5,1.2,1.2c0,0.7-0.6,1.2-1.2,1.2c-0.6,0-1.2-0.5-1.2-1.2C91.5,42.2,92.1,41.7,92.7,41.7z M92.4,43h0.3l0.4,0.7h0.4L93.1,43c0.3,0,0.5-0.2,0.5-0.5c0-0.2,0-0.4-0.2-0.5C93.2,42,93,42,92.9,42H92v1.8h0.4V43z M92.4,42.7v-0.4h0.4c0.2,0,0.3,0,0.3,0.2c0,0.2-0.1,0.2-0.3,0.2H92.4z"/></svg>