<svg xmlns="http://www.w3.org/2000/svg" viewBox="0 0 221.3 22.5">
	<text>Erwin Penland Logo</text>
	<desc>One color, black wordmark</desc>
	<path d="M16.9,7.2h-3.3V4.1H6.5v5.7h8v3.3h-8v6.1h7.2v-3.1h3.3v6.3H0v-3h2.8V4H0v-3h16.9V7.2z"/>
	<path d="M31.6,9.2h-1.4c-1.8,0-3,0.5-4.4,1.3v9.3h3v2.7h-9v-2.7h2.5V8.5h-2.5V5.8h6v2.5c1.2-1.4,2.4-2.5,4.9-2.5h0.9V9.2z"/>
	<path d="M56.1,8.5l-3.7,13.9h-3.7L45.5,10l-3.1,12.4h-3.7L34.7,8.5h-1.8V5.8H40v2.7h-1.8l2.2,10.2l3.3-12.8h3.5l3.3,12.8l2.2-10.2
		h-1.8V5.8h7v2.7H56.1z"/>
	<path d="M68.1,22.4h-8.5v-2.7h2.5V8.5h-2.5V5.8h6.1v13.9h2.4V22.4z M62,3.8V0.2h3.8v3.6H62z"/>
	<path d="M88.5,22.4h-8v-2.7h2.1v-9.6c0-0.9-0.3-1.3-1.6-1.3c-2.2,0-3.4,0.5-4.9,1.3v9.6h2.1v2.7h-8.1v-2.7h2.5V8.5h-2.5V5.8h6v2.4
		c1.3-1.5,2.4-2.5,5.4-2.5c3.3,0,4.6,1.3,4.6,4.1v9.9h2.3V22.4z"/>
	<path d="M112.4,0.9c2.9,0,4.3,1.4,4.3,4.3V10c0,2.9-1.4,4.3-4.3,4.3h-7.1v5.1h3.3v3h-9.8v-3h2.8V4h-2.8v-3H112.4z M113,5.4
		c0-0.9-0.3-1.2-1.2-1.2h-6.5V11h6.5c0.9,0,1.2-0.3,1.2-1.1V5.4z"/>
	<path d="M123.4,18.3c0,0.9,0.3,1.2,1.2,1.2h4c0.8,0,1.2-0.3,1.2-1.2v-1.3h3.5v1.3c0,2.8-1.3,4.1-4.1,4.1h-5.2
		c-2.8,0-4.1-1.3-4.1-4.1V9.9c0-2.8,1.3-4.1,4.1-4.1h5.2c2.8,0,4.1,1.3,4.1,4.1v5.2h-9.8V18.3z M124.6,8.8c-0.9,0-1.2,0.3-1.2,1.2
		v2.7h6.3V9.9c0-0.9-0.3-1.2-1.2-1.2H124.6z"/>
	<path d="M153.9,22.4h-8v-2.7h2.1v-9.6c0-0.9-0.3-1.3-1.6-1.3c-2.2,0-3.4,0.5-4.9,1.3v9.6h2.1v2.7h-8.1v-2.7h2.5V8.5h-2.5V5.8h6v2.4
		c1.3-1.5,2.4-2.5,5.4-2.5c3.3,0,4.6,1.3,4.6,4.1v9.9h2.3V22.4z"/>
	<path d="M164.5,22.4H156v-2.7h2.5V2.7H156V0h6.1v19.7h2.4V22.4z"/>
	<path d="M182.6,22.4h-5.9v-2.5c-1.2,1.6-2.4,2.5-5.4,2.5c-3.3,0-4.6-1.3-4.6-4.8c0-3.5,1.5-4.6,4.3-4.9c1.4-0.2,3.5-0.4,5.7-0.5
		V9.9c0-0.8-0.3-1.2-1.2-1.2h-3.7c-0.8,0-1.2,0.3-1.2,1.2v0.8h-3.5V9.9c0-2.8,1.3-4.1,4.1-4.1h4.9c2.8,0,4.1,1.3,4.1,4.1v9.9h2.3
		V22.4z M171.7,15.4c-1,0.2-1.4,0.4-1.4,2c0,1.7,0.3,2,1.7,2c2.3,0,3.4-0.6,4.9-1.4v-3.4L171.7,15.4z"/>
	<path d="M202.8,22.4h-8v-2.7h2.1v-9.6c0-0.9-0.3-1.3-1.6-1.3c-2.2,0-3.4,0.5-4.9,1.3v9.6h2.1v2.7h-8.1v-2.7h2.5V8.5h-2.5V5.8h6v2.4
		c1.3-1.5,2.4-2.5,5.4-2.5c3.3,0,4.6,1.3,4.6,4.1v9.9h2.3V22.4z"/>
	<path d="M221.3,22.4h-5.9V20c-1.3,1.5-2.4,2.5-5.6,2.5c-3.4,0-4.7-1.3-4.7-4.3V10c0-3,1.3-4.3,4.7-4.3c3.2,0,4.3,1,5.6,2.5V2.7
		h-2.9V0h6.5v19.7h2.4V22.4z M215.4,10.2c-1.4-0.9-2.6-1.3-5-1.3c-1.4,0-1.8,0.3-1.8,1.2v8.2c0,0.8,0.3,1.2,1.8,1.2
		c2.4,0,3.6-0.5,5-1.3V10.2z"/>
</svg>