<?xml version="1.0" encoding="utf-8"?>
<!-- Generator: Adobe Illustrator 18.0.0, SVG Export Plug-In . SVG Version: 6.00 Build 0)  -->
<!DOCTYPE svg PUBLIC "-//W3C//DTD SVG 1.1//EN" "http://www.w3.org/Graphics/SVG/1.1/DTD/svg11.dtd">
<svg version="1.1" id="Layer_1" xmlns="http://www.w3.org/2000/svg" xmlns:xlink="http://www.w3.org/1999/xlink" x="0px" y="0px"
	 viewBox="0 0 426.2 129.5" enable-background="new 0 0 426.2 129.5" xml:space="preserve">
<g>
	<path d="M32.4,9.1h-15V21h18.3v9.7H17.4v12.6h15v-7h9.4v16.2H0v-8.8h6.6V8.8H0V0h41.8v16.2h-9.4V9.1z"/>
	<path d="M107.9,52.4h-14l-9.8-20.2h-8.2v11.4h7.6v8.8h-25v-8.8h6.6V8.8h-6.6V0h33.7c7.1,0,10.5,3.4,10.5,10.5v10.6
		c0,6-2.4,9.3-7.3,10.3l5.8,12.2h6.7V52.4z M90.4,22.7c1.1,0,1.5-0.4,1.5-1.5V11.1c0-1.1-0.4-1.5-1.5-1.5H75.9v13.2H90.4z"/>
	<path d="M185.2,8.8l-10.9,43.5h-11.4l-8.8-34.1l-8.8,34.1h-11.9L122.5,8.8h-5.9V0h22.9v8.8h-6.1l6.3,29.6L149.5,0h9.1l9.9,38.5
		l6.3-29.6h-6.1V0h22.4v8.8H185.2z"/>
	<path d="M223,43.5h6.9v8.8h-24.5v-8.8h6.9V8.8h-6.9V0h24.5v8.8H223V43.5z"/>
	<path d="M293,8.8v43.5h-11.1l-19.7-36v27.2h7.2v8.8h-24.1v-8.8h6.6V8.8h-6.6V0h18.4l19,34.8v-26h-7.2V0h23.8v8.8H293z"/>
</g>
<g>
	<path d="M33.7,77.1c7.1,0,10.5,3.4,10.5,10.5v12.1c0,7.1-3.4,10.5-10.5,10.5H17.4v10.5h7.8v8.8H0v-8.8h6.6V86H0v-8.8H33.7z
		 M33.4,88.2c0-1.1-0.4-1.5-1.5-1.5H17.4v13.9h14.5c1.1,0,1.5-0.4,1.5-1.5V88.2z"/>
	<path d="M91.7,86.3h-15v11.8H95v9.7H76.6v12.6h15v-7h9.4v16.2H59.3v-8.8h6.6V86h-6.6v-8.8h41.8v16.2h-9.4V86.3z"/>
	<path d="M165.5,86v43.5h-11.1l-19.7-36v27.2h7.2v8.8h-24.1v-8.8h6.6V86h-6.6v-8.8h18.4l19,34.8V86H148v-8.8h23.8V86H165.5z"/>
	<path d="M186.6,129.5v-8.8h6.6V86h-6.6v-8.8h25V86H204v34.4h14.5v-11.5h9.7v20.7H186.6z"/>
	<path d="M297.7,129.5h-22.6v-8.8h5.5l-2.2-6.9h-17.5l-2.2,6.9h5.4v8.8H242v-8.8h5.7L259.6,86h-6v-8.8h23.5l14.9,43.5h5.7V129.5z
		 M269.7,86.4l-5.9,18.4h11.7L269.7,86.4z"/>
	<path d="M359.3,86v43.5h-11.1l-19.7-36v27.2h7.2v8.8h-24.1v-8.8h6.6V86h-6.6v-8.8H330l19,34.8V86h-7.2v-8.8h23.8V86H359.3z"/>
	<path d="M387,120.7V86h-6.6v-8.8h35.2c7.1,0,10.5,3.4,10.5,10.5V119c0,7.1-3.4,10.5-10.5,10.5h-35.2v-8.8H387z M413.9,119.6
		c1.1,0,1.5-0.4,1.5-1.5V88.5c0-1.1-0.4-1.5-1.5-1.5h-16.1v32.6H413.9z"/>
</g>
</svg>
