<?xml version="1.0" encoding="utf-8"?>
<!-- Generator: Adobe Illustrator 18.0.0, SVG Export Plug-In . SVG Version: 6.00 Build 0)  -->
<!DOCTYPE svg PUBLIC "-//W3C//DTD SVG 1.1//EN" "http://www.w3.org/Graphics/SVG/1.1/DTD/svg11.dtd">
<svg version="1.1" id="Layer_1" xmlns="http://www.w3.org/2000/svg" xmlns:xlink="http://www.w3.org/1999/xlink" x="0px" y="0px"
	 viewBox="0 0 67.8 504" enable-background="new 0 0 67.8 504" xml:space="preserve">
<path fill="rgba(255,255,255,.5)" d="M65.8,0L5.6,61.9c-5.9,6.1-7.3,15.2-3.5,22.8l25.2,50.5c2.8,5.6,2.8,12.2,0,17.8L2.2,203.2c-3.8,7.7-2.3,16.9,3.7,23
	c0,0,25.9,16.7,25.9,25.9c0,9.2-26.2,25.9-26.2,25.9c-5.9,6.1-7.3,15.2-3.5,22.8l25.2,50.5c2.8,5.6,2.8,12.2,0,17.8L2.2,419.2
	c-3.8,7.7-2.3,16.9,3.7,23L67.8,504L65.8,0z"/>
</svg>
