<svg xmlns="http://www.w3.org/2000/svg" viewBox="0 0 124.848 107.554">
	<title>CIT Bank Logo</title>
	<desc>Two-color, staked wordmark for CIT Bank</desc>
	<path fill="#818385" d="M12.859,101.375h11.767c2.023,0,3.592-0.521,4.716-1.569c1.115-1.048,1.674-2.531,1.674-4.451
		c0-1.875-0.559-3.329-1.674-4.337c-1.123-1.015-2.693-1.518-4.716-1.518H12.859V101.375z M12.859,84.709H23.72
		c1.601,0,2.93-0.456,3.992-1.362c1.065-0.904,1.6-2.208,1.6-3.91c0-1.922-0.479-3.271-1.438-4.048
		c-0.964-0.782-2.339-1.171-4.154-1.171H12.859V84.709z M6.201,68.788h18.475c3.412,0,6.145,0.779,8.204,2.341
		c2.057,1.562,3.086,3.922,3.086,7.082c0,1.916-0.465,3.559-1.409,4.926c-0.939,1.366-2.28,2.421-4.022,3.169v0.105
		c2.345,0.497,4.123,1.608,5.329,3.329c1.201,1.721,1.809,3.879,1.809,6.469c0,1.493-0.267,2.885-0.801,4.179
		c-0.532,1.297-1.368,2.417-2.498,3.356c-1.142,0.943-2.595,1.69-4.367,2.238c-1.776,0.549-3.889,0.823-6.34,0.823H6.201V68.788z"/>
	<path fill="#818385" d="M58.548,93.012c-0.923,0.606-2.055,0.97-3.404,1.093c-1.352,0.124-2.706,0.311-4.052,0.558
		c-0.638,0.107-1.262,0.261-1.862,0.453c-0.605,0.194-1.138,0.464-1.6,0.798c-0.462,0.34-0.824,0.785-1.088,1.333
		c-0.265,0.553-0.401,1.216-0.401,1.997c0,0.673,0.197,1.244,0.584,1.706c0.391,0.462,0.86,0.823,1.411,1.088
		c0.553,0.27,1.155,0.454,1.81,0.559c0.66,0.112,1.253,0.163,1.79,0.163c0.669,0,1.4-0.09,2.177-0.268
		c0.787-0.175,1.523-0.477,2.21-0.904c0.698-0.427,1.276-0.968,1.73-1.625c0.467-0.657,0.695-1.463,0.695-2.426V93.012z
		 M64.612,100.684c0,0.744,0.107,1.278,0.295,1.597c0.198,0.315,0.583,0.477,1.151,0.477h0.636c0.248,0,0.536-0.035,0.856-0.107
		v4.208c-0.212,0.07-0.486,0.15-0.827,0.236c-0.337,0.091-0.688,0.172-1.04,0.242c-0.356,0.073-0.71,0.124-1.07,0.162
		c-0.347,0.034-0.652,0.054-0.903,0.054c-1.241,0-2.27-0.25-3.085-0.749c-0.819-0.495-1.351-1.364-1.597-2.608
		c-1.207,1.169-2.688,2.023-4.45,2.557c-1.754,0.531-3.448,0.8-5.08,0.8c-1.252,0-2.431-0.169-3.57-0.506
		c-1.141-0.342-2.14-0.836-3.01-1.491c-0.868-0.66-1.563-1.492-2.077-2.505c-0.515-1.014-0.772-2.193-0.772-3.539
		c0-1.706,0.314-3.092,0.934-4.159c0.62-1.062,1.437-1.897,2.452-2.5c1.011-0.604,2.147-1.041,3.409-1.306
		c1.262-0.265,2.525-0.469,3.805-0.613c1.098-0.213,2.149-0.363,3.141-0.452c0.996-0.087,1.871-0.239,2.635-0.454
		c0.762-0.212,1.363-0.539,1.814-0.982c0.442-0.443,0.664-1.109,0.664-1.999c0-0.78-0.183-1.419-0.562-1.916
		c-0.371-0.494-0.831-0.879-1.38-1.148c-0.553-0.265-1.165-0.44-1.836-0.529c-0.684-0.091-1.317-0.135-1.918-0.135
		c-1.705,0-3.11,0.358-4.213,1.065c-1.099,0.711-1.72,1.813-1.863,3.304h-6.064c0.101-1.776,0.525-3.248,1.274-4.422
		c0.748-1.171,1.694-2.111,2.849-2.821c1.153-0.711,2.457-1.207,3.914-1.49c1.457-0.285,2.944-0.428,4.477-0.428
		c1.345,0,2.675,0.143,3.992,0.428c1.312,0.283,2.492,0.745,3.538,1.382c1.048,0.639,1.891,1.463,2.533,2.476
		c0.64,1.013,0.95,2.247,0.95,3.702V100.684z"/>
	<path fill="#818385" d="M69.893,79.274h5.749v4.046l0.106,0.11c0.925-1.529,2.136-2.726,3.621-3.597
		c1.493-0.869,3.144-1.304,4.956-1.304c3.013,0,5.396,0.783,7.132,2.345c1.739,1.562,2.612,3.906,2.612,7.027v18.904h-6.071V89.498
		c-0.073-2.163-0.53-3.734-1.385-4.713c-0.851-0.974-2.181-1.465-3.992-1.465c-1.034,0-1.951,0.188-2.775,0.56
		c-0.815,0.373-1.505,0.888-2.072,1.547c-0.569,0.657-1.011,1.427-1.335,2.316c-0.313,0.888-0.475,1.828-0.475,2.821v16.241h-6.069
		V79.274z"/>
	<polygon fill="#818385" points="99.344,68.788 105.411,68.788 105.411,90.404 116.378,79.274 123.838,79.274 113.289,89.395 
		124.848,106.805 117.44,106.805 109.028,93.44 105.411,96.957 105.411,106.805 99.344,106.805 	"/>
	<polygon fill="#076BAC" points="111.715,58.134 111.715,23.615 124.847,23.615 124.847,4.316 77.43,4.316 77.43,23.615 
		90.471,23.615 90.471,58.134 	"/>
	<rect x="56.284" y="23.615" fill="#076BAC" width="21.195" height="34.527"/>
	<polygon fill="#969799" points="56.284,23.664 56.284,0 82.173,0 	"/>
	<path fill="#076BAC" d="M28.591,59.228c13.326,0,24.517-9.108,27.644-21.481H36.319c-1.94,2.13-4.689,3.415-7.728,3.415
		c-5.833,0-10.523-4.699-10.523-10.48c0-5.74,4.69-10.433,10.523-10.433c3.039,0,5.788,1.328,7.728,3.416h19.916
		C53.108,11.284,41.917,2.181,28.591,2.181C12.799,2.181,0,14.985,0,30.681C0,46.469,12.799,59.228,28.591,59.228"/>
</svg>