<svg xmlns="http://www.w3.org/2000/svg" viewBox="0 0 432 83">
	<path d="M51.7,64.3c-1.2,4.6-2.7,10.4-14.8,10.4H20.2V11.4c0-5.3,1.8-5.5,3.6-5.6c1.4-0.1,3-0.3,3-3V0H0.1v2.7c0,2.7,1.7,2.9,3,3
		c1.7,0.2,3.5,0.4,3.5,5.6v58.5c0,5.3-1.8,5.5-3.6,5.6c-1.4,0.1-3,0.3-3,3v2.7h59.7V58.8h-3.3C53.2,58.8,52.5,61.5,51.7,64.3z"/>
	<path d="M72.8,67.2c-4.3,0-7.9,3.6-7.9,7.9c0,4.3,3.6,7.9,7.9,7.9c4.3,0,7.9-3.6,7.9-7.9C80.8,70.8,77.1,67.2,72.8,67.2z"/>
	<path d="M137.5,64.3c-1.2,4.6-2.7,10.4-14.8,10.4h-16.8V11.4c0-5.3,1.8-5.5,3.6-5.6c1.4-0.1,3-0.3,3-3V0H85.9v2.7
		c0,2.7,1.7,2.9,3,3c1.7,0.2,3.5,0.4,3.5,5.6v58.5c0,5.3-1.8,5.5-3.6,5.6c-1.4,0.1-3,0.3-3,3v2.7h59.7V58.8h-3.3
		C138.9,58.8,138.2,61.5,137.5,64.3z"/>
	<path d="M158.6,67.2c-4.3,0-7.9,3.6-7.9,7.9c0,4.3,3.6,7.9,7.9,7.9c4.3,0,7.9-3.6,7.9-7.9C166.5,70.8,162.9,67.2,158.6,67.2z"/>
	<path d="M215.5,38.9c9.1-2.1,17.7-8.6,17.7-19.5c0-12.8-11.4-18.6-22-18.6h-37.8v2.6c0,2.6,1.6,2.7,2.9,2.9
		c1.6,0.2,3.3,0.3,3.3,5.2v59c0,4.9-1.7,5.1-3.3,5.3c-1.3,0.1-2.9,0.3-2.9,2.9v2.6h35c14.7,0,29.5-6.8,29.5-22.1
		C237.9,45.9,226.9,40.1,215.5,38.9z M201.9,36.5h-9.5V6.6h12.8c9.3,0,14.3,5,14.3,14.6C219.5,30.8,212.9,36.5,201.9,36.5z
		 M224.3,58.3c0,11.2-6.2,17.1-17.9,17.1h-13.9v-33h10.4C217.6,42.4,224.3,47.3,224.3,58.3z"/>
	<path d="M295.9,66.3c-5.6,6.8-11,9.8-17.3,9.8c-5.5,0-10.3-2-13.9-5.8c-4.5-4.7-6.9-12.1-6.6-19.8h41.7l0-0.5
		c0.3-8.8-2.4-16.6-7.7-22c-4.6-4.7-10.8-7.2-18.1-7.2c-17.1,0-29.5,12.8-29.5,30.5c0,18.4,13.3,31.7,31.5,31.7
		c10.3,0,18.2-4.1,24.7-12.8l0.3-0.4l-4.9-3.8L295.9,66.3z M258.6,43.7c0.8-8.2,5.1-16.7,14.8-16.7c3.6,0,6.6,1.2,8.8,3.5
		c2.7,2.9,4.1,7.7,3.9,13.2H258.6z"/>
	<path d="M364.1,73.6l-0.5,0.4c-0.9,0.8-1.6,1.4-2.9,1.4c-1,0-1.8-0.3-2.5-1c-2.3-2.3-2.2-7.8-2.2-10.8V44.2c0-7-2.4-23.4-24.5-23.4
		c-5,0-18.8,2.6-18.8,10.8c0,3.7,2.9,6.4,6.8,6.4c4.1,0,7.1-2.8,7.5-7c0.3-3.1,1.1-4.7,4.5-4.7c7.5,0,11.3,5.9,11.4,17.5
		c-23.5,2.4-35.9,9.9-35.9,21.8c0,8.6,7.1,17.4,20.7,17.4c7.8,0,12.3-2.9,17.2-8c2.1,5.1,6.1,8,11.3,8c4.5,0,9.8-3.3,9.8-6.1
		c0-0.8-0.5-1.4-0.9-1.9L364.1,73.6z M330.2,76.1c-5.7,0-9.3-4-9.3-10.3c0-13,16.4-15.9,22.4-16.5v10.9
		C343.3,72.8,335.1,76.1,330.2,76.1z"/>
	<path d="M428.9,75.2c-1.7-0.2-3.3-0.5-3.3-4.7V37.6c0-11-6.8-16.8-19.7-16.8c-7.1,0-12.7,2.1-18.1,6.7v-5.4l-17.9,0.5v2.9
		c0,2.5,1.6,2.8,2.8,3.1c1.6,0.3,3.1,0.6,3.1,4.7v37c0,4.1-1.5,4.4-3,4.7c-1.3,0.3-2.9,0.6-2.9,3.3v2.7H395v-2.7
		c0-2.9-1.8-3.1-3.2-3.3c-1.7-0.2-3.3-0.5-3.3-4.7v-36c2.6-4,8.8-6.7,13-6.7c10.7,0,11.5,5.8,11.5,13.3v29.4c0,4.3-1.6,4.5-3.3,4.7
		c-1.4,0.2-3.2,0.4-3.2,3.3v2.7H432v-2.7C432,75.6,430.2,75.4,428.9,75.2z"/>
</svg>
