<svg xmlns="http://www.w3.org/2000/svg" viewBox="0 0 424 133.7"><path fill="#696057" d="M.8 42.5c-.7-.4-.8-.7-.8-2.2 0-2.8.2-5 .3-5.9.1-.6.2-.9.4-.9.3 0 .4.2.4.6 0 .5 0 1.3.2 2.1.8 4.2 4.5 5.7 8.3 5.7 5.4 0 8-3.9 8-7.5 0-3.9-1.6-6.1-6.4-10.1l-2.5-2.1C2.8 17.3 1.4 13.8 1.4 10 1.3 4.1 5.8 0 13 0c2.2 0 3.8.2 5.2.6 1.1.2 1.5.3 2 .3s.6.1.6.4c0 .3-.2 2.1-.2 5.9 0 .9-.1 1.3-.4 1.3-.3 0-.4-.3-.4-.7-.1-.7-.4-2.2-.7-2.8-.3-.6-1.9-3-7-3C8 2 5 4.4 5 8.5c0 3.2 1.5 5.2 6.8 9.4l1.6 1.2c6.6 5.2 8.2 8.7 8.2 13.2 0 2.3-.9 6.6-4.8 9.3-2.4 1.7-5.4 2.4-8.5 2.4-2.6 0-5.2-.4-7.5-1.5zM46.4 0c12.6 0 22 8 22 21 0 12.6-8.8 23-22.4 23-15.4 0-21.8-11.9-21.8-22 .1-9.2 6.7-22 22.2-22zm1.2 41.8c5 0 15.5-2.9 15.5-19.2C63 9.1 54.9 1.9 46 1.9c-9.4 0-16.4 6.2-16.4 18.5 0 13 7.9 21.4 18 21.4zM73 17c0-8.7 0-10.3-.1-12.1-.1-1.9-.6-2.8-2.4-3.2-.4-.1-1.4-.2-1.9-.2-.2 0-.4-.1-.4-.3 0-.3.3-.4.9-.4 2.5 0 5.9.2 6.4.2S79.4.8 81 .8c.6 0 .9.1.9.4 0 .2-.2.3-.4.3-.4 0-.7.1-1.4.2-1.5.3-2 1.3-2.1 3.2-.1 1.8-.1 3.4-.1 12.1v7.9c0 8.1 1.8 11.6 4.2 13.9 2.7 2.6 5.3 3.1 8.5 3.1 3.4 0 6.8-1.6 8.8-4 2.6-3.2 3.3-8 3.3-13.7v-7c0-8.7 0-10.3-.1-12.1-.1-1.9-.6-2.8-2.4-3.2-.4-.1-1.4-.2-1.9-.2-.2 0-.4-.1-.4-.3 0-.3.3-.4.9-.4 2.5 0 5.6.2 5.9.2.4 0 3-.2 4.7-.2.6 0 .9.1.9.4 0 .2-.2.3-.4.3-.4 0-.7.1-1.4.2-1.5.3-2 1.2-2.1 3.2-.1 1.8-.1 3.4-.1 12.1v6c0 6.1-.7 12.8-5.2 16.8-4 3.6-8.2 4.2-11.6 4.2-1.9 0-7.6-.2-11.6-4-2.7-2.6-4.9-6.6-4.9-14.8V17z"/><path fill="#696057" d="M129 26.9c0 5.4 0 9.8.3 12.2.2 1.6.5 2.9 2.2 3.1.8.1 2 .2 2.5.2.3 0 .4.2.4.3 0 .3-.3.4-.9.4-3.1 0-6.6-.2-6.9-.2-.3 0-3.8.2-5.5.2-.6 0-.9-.1-.9-.4 0-.2.1-.3.4-.3.5 0 1.2-.1 1.7-.2 1.1-.2 1.4-1.5 1.6-3.1.3-2.4.3-6.8.3-12.2V3.2l-8.2.1c-3.5.1-4.8.4-5.7 1.8-.6 1-.8 1.3-1 1.7-.2.4-.3.6-.6.6-.2 0-.3-.2-.3-.5 0-.6 1.1-5.4 1.2-5.8.1-.3.3-1.1.6-1.1.4 0 1 .6 2.5.7 1.6.2 3.8.3 4.4.3h21c1.8 0 3.1-.1 4-.3.8-.1 1.3-.3 1.6-.3.3 0 .3.3.3.7 0 1.7-.2 5.6-.2 6.2 0 .5-.2.7-.4.7-.3 0-.4-.2-.4-1v-.6c-.2-1.7-1.5-3-6.9-3.1l-7.1-.1v23.7zm55 0c0 5.4 0 9.8.3 12.2.2 1.6.5 2.9 2.2 3.1.8.1 2 .2 2.5.2.3 0 .4.2.4.3 0 .3-.3.4-.9.4-3.1 0-6.6-.2-6.9-.2-.3 0-3.8.2-5.5.2-.6 0-.9-.1-.9-.4 0-.2.1-.3.4-.3.5 0 1.2-.1 1.7-.2 1.1-.2 1.4-1.5 1.6-3.1.3-2.4.3-6.8.3-12.2V21c0-.2-.2-.3-.3-.3h-23.8c-.2 0-.3.1-.3.3v5.9c0 5.4 0 9.8.3 12.2.2 1.6.5 2.9 2.2 3.1.8.1 2 .2 2.5.2.3 0 .4.2.4.3 0 .3-.3.4-.9.4-3.1 0-6.6-.2-6.9-.2-.3 0-3.8.2-5.5.2-.6 0-.9-.1-.9-.4 0-.2.1-.3.4-.3.5 0 1.2-.1 1.7-.2 1.1-.2 1.4-1.5 1.6-3.1.3-2.4.3-6.8.3-12.2V17c0-8.7 0-10.3-.1-12.1-.1-1.9-.6-2.8-2.4-3.2-.4-.1-1.4-.2-1.9-.2-.2 0-.4-.1-.4-.3 0-.3.3-.4.9-.4 2.5 0 6.1.2 6.3.2.3 0 3.8-.2 5.5-.2.6 0 .9.1.9.4 0 .2-.2.3-.4.3-.4 0-.7.1-1.4.2-1.5.3-2 1.2-2.1 3.2-.1 1.8-.1 3.4-.1 12.1v1.2c0 .3.2.3.3.3H179c.2 0 .3-.1.3-.3V17c0-8.7 0-10.3-.1-12.1-.1-1.9-.6-2.8-2.4-3.2-.4-.1-1.4-.2-1.9-.2-.2 0-.4-.1-.4-.3 0-.3.3-.4.9-.4 2.5 0 6.1.2 6.3.2.3 0 3.8-.2 5.5-.2.6 0 .9.1.9.4 0 .2-.2.3-.4.3-.4 0-.7.1-1.4.2-1.5.3-2 1.2-2.1 3.2-.2 1.8-.2 3.4-.2 12.1v9.9zm14.3-9.9c0-8.7 0-10.3-.1-12.1-.1-1.9-.6-2.8-2.4-3.2-.4-.1-1.4-.2-1.9-.2-.2 0-.4-.1-.4-.3 0-.3.3-.4.9-.4 1.3 0 2.8 0 4 .1l2.3.1c.4 0 11.6 0 12.8-.1 1.1-.1 2-.2 2.4-.3.3-.1.5-.3.8-.3.2 0 .2.2.2.5 0 .4-.3 1.1-.4 2.6-.1.6-.2 3-.3 3.7-.1.3-.2.6-.4.6-.3 0-.4-.3-.4-.7 0-.4-.1-1.3-.3-2-.4-.9-1-1.6-4-1.9-1.1-.1-7.2-.1-7.8-.1-.2 0-.3.2-.3.6V19c0 .4.1.6.3.6.7 0 7.6 0 8.9-.1 1.3-.1 2.1-.2 2.6-.8.4-.4.6-.7.8-.7.2 0 .3.1.3.4 0 .3-.3 1.3-.4 3.1-.1 1.1-.2 3.2-.2 3.6 0 .4 0 1.1-.4 1.1-.3 0-.4-.2-.4-.5 0-.6 0-1.1-.2-1.9-.2-.8-.7-1.7-2.9-2-1.5-.2-7.1-.3-8-.3-.3 0-.4.2-.4.4v4.9c0 1.9-.1 8.4 0 9.6.2 3.9 1 4.6 6.5 4.6 1.5 0 3.9 0 5.4-.6s2.1-1.7 2.5-4c.1-.6.2-.8.5-.8s.3.4.3.8-.4 4.3-.7 5.4c-.4 1.5-.8 1.5-3 1.5-4.2 0-7.3-.1-9.5-.2s-3.5-.2-4.4-.2c-.1 0-1.1 0-2.2.1-1.1 0-2.4.1-3.3.1-.6 0-.9-.1-.9-.4 0-.2.1-.3.4-.3.5 0 1.2-.1 1.7-.2 1.1-.2 1.4-1.5 1.6-3.1.3-2.4.3-6.8.3-12.2V17zm36.5-14.8c.7-1.9.9-2.2 1.2-2.2.3 0 .6.3 1.2 2 .8 2.1 9.6 25.3 13.1 33.8 2 5 3.6 5.9 4.8 6.2.8.3 1.7.3 2.2.3.3 0 .6.1.6.3 0 .3-.5.4-1.1.4-.8 0-4.9 0-8.8-.1-1.1-.1-1.7-.1-1.7-.4 0-.2.2-.3.4-.4.3-.1.7-.6.3-1.5L241.9 27c-.1-.2-.2-.3-.5-.3h-12.1c-.3 0-.4.2-.6.4l-3.4 9.9c-.5 1.4-.8 2.7-.8 3.8 0 1.1 1.2 1.6 2.1 1.6h.6c.4 0 .6.1.6.3 0 .3-.3.4-.8.4-1.3 0-3.8-.2-4.4-.2-.6 0-3.7.2-6.3.2-.7 0-1.1-.1-1.1-.4 0-.2.2-.3.5-.3.4 0 1.2-.1 1.6-.1 2.6-.3 3.7-2.5 4.7-5.3l12.8-34.8zm5.9 22.4c.3 0 .3-.2.2-.4l-5.3-15.1c-.3-.8-.6-.8-.8 0l-4.9 15.1c-.1.3 0 .4.2.4h10.6zm16.6 17.9c-.8-.4-.8-.6-.8-2.1 0-2.8.2-5 .3-5.9.1-.6.2-.9.4-.9.3 0 .4.2.4.6 0 .5 0 1.3.2 2.1.8 4.2 4.5 5.7 8.3 5.7 5.4 0 8-3.9 8-7.5 0-3.9-1.6-6.1-6.5-10.1l-2.5-2.1c-5.9-4.9-7.3-8.4-7.3-12.2 0-6 4.5-10.1 11.6-10.1 2.2 0 3.8.2 5.2.6 1.1.2 1.5.3 2 .3s.6.1.6.4c0 .3-.2 2.1-.2 5.9 0 .9-.1 1.3-.4 1.3-.3 0-.4-.3-.4-.7-.1-.7-.4-2.2-.7-2.8-.3-.6-1.9-3-7-3-3.9 0-6.9 2.4-6.9 6.5 0 3.2 1.5 5.2 6.8 9.4l1.6 1.2c6.6 5.2 8.2 8.7 8.2 13.2 0 2.3-.9 6.6-4.8 9.3-2.4 1.7-5.4 2.4-8.5 2.4-2.8 0-5.3-.4-7.6-1.5zM299 26.9c0 5.4 0 9.8.3 12.2.2 1.6.5 2.9 2.2 3.1.8.1 2 .2 2.5.2.3 0 .4.2.4.3 0 .3-.3.4-.9.4-3.1 0-6.6-.2-6.9-.2-.3 0-3.8.2-5.5.2-.6 0-.9-.1-.9-.4 0-.2.1-.3.4-.3.5 0 1.2-.1 1.7-.2 1.1-.2 1.4-1.5 1.6-3.1.3-2.4.3-6.8.3-12.2V3.2l-8.2.1c-3.5.1-4.8.4-5.7 1.8-.6 1-.8 1.3-1 1.7-.2.4-.3.6-.6.6-.2 0-.3-.2-.3-.5 0-.6 1.1-5.4 1.2-5.8.1-.3.3-1.1.6-1.1.4 0 1 .6 2.5.7 1.6.2 3.8.3 4.4.3h21c1.8 0 3.1-.1 4-.3.8-.1 1.3-.3 1.6-.3.3 0 .3.3.3.7 0 1.7-.2 5.6-.2 6.2 0 .5-.2.7-.4.7-.3 0-.4-.2-.4-1v-.6c-.2-1.7-1.5-3-6.9-3.1l-7.1-.1v23.7zm21.1-9.9c0-8.7 0-10.3-.1-12.1-.1-1.9-.6-2.8-2.4-3.2-.4-.1-1.4-.2-1.9-.2-.2 0-.4-.1-.4-.3 0-.3.3-.4.9-.4 1.3 0 2.8 0 4 .1l2.3.1c.4 0 11.6 0 12.8-.1 1.1-.1 2-.2 2.4-.3.3-.1.5-.3.8-.3.2 0 .2.2.2.5 0 .4-.3 1.1-.4 2.6-.1.6-.2 3-.3 3.7-.1.3-.2.6-.4.6-.3 0-.4-.3-.4-.7 0-.4-.1-1.3-.3-2-.4-.9-1-1.6-4-1.9-1-.1-7.1-.2-7.7-.2-.2 0-.3.2-.3.6V19c0 .4.1.6.3.6.7 0 7.6 0 8.9-.1 1.3-.1 2.1-.2 2.6-.8.4-.4.6-.7.8-.7.2 0 .3.1.3.4 0 .3-.3 1.3-.4 3.1-.1 1.1-.2 3.2-.2 3.6 0 .4 0 1.1-.4 1.1-.3 0-.4-.2-.4-.5 0-.6 0-1.1-.2-1.9-.2-.8-.7-1.7-2.9-2-1.5-.2-7.1-.3-8-.3-.3 0-.4.2-.4.4v4.9c0 1.9-.1 8.4 0 9.6.2 3.9 1 4.6 6.5 4.6 1.5 0 3.9 0 5.4-.6 1.5-.6 2.1-1.7 2.5-4 .1-.6.2-.8.5-.8s.3.4.3.8-.4 4.3-.7 5.4c-.4 1.5-.8 1.5-3 1.5-4.2 0-7.3-.1-9.5-.2s-3.5-.2-4.4-.2c-.1 0-1.1 0-2.2.1-1.1 0-2.4.1-3.3.1-.6 0-.9-.1-.9-.4 0-.2.1-.3.4-.3.5 0 1.2-.1 1.7-.2 1.1-.2 1.4-1.5 1.6-3.1.3-2.4.3-6.8.3-12.2V17zm28.5 0c0-8.7 0-10.3-.1-12.1-.1-1.9-.6-2.8-2.4-3.2-.4-.1-1.4-.2-1.9-.2-.2 0-.4-.1-.4-.3 0-.3.3-.4.9-.4 2.5 0 6.1.2 6.3.2.6 0 4.9-.2 6.6-.2 3.5 0 7.3.3 10.3 2.5 1.4 1 3.9 3.8 3.9 7.6 0 4.1-1.7 8.3-6.8 13 4.6 5.9 8.4 10.9 11.7 14.4 3 3.2 5.4 3.8 6.8 4 1.1.2 1.9.2 2.2.2.3 0 .5.2.5.3 0 .3-.3.4-1.3.4h-4c-3.1 0-4.5-.3-6-1.1-2.4-1.3-4.4-4-7.6-8.2-2.4-3.1-5-6.8-6.1-8.3-.2-.2-.4-.3-.7-.3l-6.9-.1c-.3 0-.4.2-.4.4v1.3c0 5.4 0 9.8.3 12.2.2 1.6.5 2.9 2.2 3.1.8.1 2 .2 2.5.2.3 0 .4.2.4.3 0 .3-.3.4-.9.4-3.1 0-6.6-.2-6.9-.2-.1 0-3.6.2-5.3.2-.6 0-.9-.1-.9-.4 0-.2.1-.3.4-.3.5 0 1.2-.1 1.7-.2 1.1-.2 1.4-1.5 1.6-3.1.3-2.4.3-6.8.3-12.2V17zm4.5 4.9c0 .3.1.5.4.7.8.5 3.4.9 5.9.9 1.3 0 2.9-.2 4.2-1.1 2-1.3 3.4-4.4 3.4-8.6 0-7-3.7-11.2-9.7-11.2-1.7 0-3.2.2-3.8.3-.3.1-.4.3-.4.7v18.3z"/><path fill="#696057" d="M386.7 35.6c.1 4.6.7 6.1 2.2 6.5 1.1.3 2.3.3 2.8.3.3 0 .4.1.4.3 0 .3-.3.4-1 .4-3.2 0-5.4-.2-5.9-.2s-2.9.2-5.4.2c-.6 0-.9-.1-.9-.4 0-.2.2-.3.4-.3.4 0 1.5-.1 2.3-.3 1.4-.4 1.7-2 1.7-7.1l.1-32.1c0-2.2.2-2.8.6-2.8.4 0 1.4 1.2 2 1.8.8 1 9.2 10 17.8 19.2 5.6 5.9 11.7 12.8 13.5 14.6l-.6-28.5c-.1-3.6-.4-4.9-2.2-5.3-1-.2-2.3-.3-2.7-.3-.4 0-.4-.2-.4-.4 0-.3.4-.4 1.1-.4 2.5 0 5.2.2 5.8.2.6 0 2.5-.2 4.8-.2.6 0 1 .1 1 .4 0 .2-.2.4-.6.4-.3 0-.7 0-1.3.2-1.9.4-2.1 1.6-2.1 5l-.1 32.9c0 3.7-.1 4-.5 4s-1.1-.6-4.1-3.6c-.6-.6-8.7-8.8-14.6-15.2-6.5-7-12.8-14.1-14.6-16.1l.5 26.8zm-74.3 57.8c-1.3 1.6-3.2 2.5-4.8 3.7-3.1 2.4-14.4 14.5-14.4 18.1 0 1.3 1.7 1.4 2.6 1.4 5.2 0 9.3-5.4 12-5.4.4 0 .9.1 1.1.4-3.7 2.9-11.3 7.2-16.2 7.2-2.7 0-3.9-1.5-3.9-4.2 0-4.4 3.5-8.7 6-12.1-5 1.6-9.7 4.3-14.2 7.1-1.7 1-11.4 6.6-12.8 6.6-1.5 0-4.1-.3-4.1-2.4 0-1.6 2.1-2.7 3.2-3.5 5-3.5 10.5-14.9 10.5-21 0-3.5-2.6-4.9-5.8-4.9-2.4 0-4.7.4-6.9 1.2-4.3 4.4-8.2 9.3-12.5 13.7-6.3 6.5-13.2 12.4-19.7 18.6-3.7 3.5-11.1 11.1-15.5 13-3.2 1.4-7.6 2.7-11.1 2.7-3.4 0-6.3-3.1-6.3-6.5s8.6-12.6 11.2-14.8c1.8-1.4 3.7-2.7 5.5-4.1 4.8-3.7 9.4-7.4 14.5-10.6 5.7-3.7 11.3-7.7 17.4-10.8 7.7-3.9 12.1-3.9 19.4-9.9 3.4-2.8 6.1-5.3 6.1-10 0-13.5-12.8-17.9-24.2-17.9-9.3 0-19.8 8.7-20.1 8.7-.6 0-1.2-.6-1.2-1.2 0-1.2 1.5-3.9 2.3-4.9 4.7-6.2 14.1-6.1 21.1-6.1 5.7 0 6.8.7 12 2.7 6.8 2.7 15.1 6 15.1 14.6 0 7.9-4 15-11.1 18.5 1.6-.4 3.3-.9 5-.9 6.6 0 10 3.3 10 9.9 0 7-4.2 13.4-7.5 19.2 7.9-4.1 30.4-19.9 37.5-19.9.4 0 1 .2 1 .8.1 1-.6 2.2-1.2 3zm-90.7 16.2c-4.3 3.1-16.2 13.5-17.4 18.7 1.2.6 2.5.9 3.8.9 5.6 0 15.1-8.4 19.4-12 9.9-8.3 19.4-17 27.1-27.3-7 1.6-26.6 15.1-32.9 19.7z"/><path fill="#696057" d="M314.7 115.8c-.7 0-1.3-1.1-1.3-1.7 0-1.7.6-3.3 1.4-4.8-1.1.4-7.6 3.7-7.9 3.7-.3 0-.7-.1-.9-.3.7-1.2 11.6-6.2 13.9-8.1.8-.7 2.3-2.6 3.3-2.6.4 0 .9.3.9.8 0 1.3-7.2 6.1-7.3 9.2.2.5.6.9 1.2.9 2.5 0 4-1.8 6.2-2.6l.5.2c-.9 1.5-8.2 5.3-10 5.3zm13.2-15.9c-2.7 0-3.5-6.9-3.5-8.9 0-1.8 2-2 3.3-2 .3 0 .6.3.8.6 0 2-1.3 3.7-1.3 5.7 0 1.8 1.3 3.1 1.3 3.9 0 .4-.1.7-.6.7z"/><path fill="#696057" d="M385.4 64.5c-1.1 6.5-8.4 12-13.1 16.1-.8.7-1.5 1.4-2.2 2.1-8.4 8.8-23.2 19.4-34.2 24.7-1 2.8-3.7 4.3-3.7 7.5 0 2.8 3.7 4.4 6 4.4.4 0 .7-.2 1-.3 2.6-.7 5.1-.6 7.7-1.7 3.1-1.3 8.3-6.1 10.7-6.6l.3.2c-.2 1.1-2.2 2.2-3.1 2.8-6.8 4.8-10.1 8-19 8-2.6 0-7.7-.3-7.7-3.9 0-2.3.5-6 1.5-8-1.8.3-8.9 3.4-9 3.4-.2 0-.3 0-.3-.1 0-.7.3-.9.9-1.3 2.5-2.1 5.9-2.6 8.4-4.3 1.4-.9 2.1-2.5 3.6-3.2 5.4-8.9 13.4-15.9 20.3-23.6 2-2.1 3.7-4.4 5.6-6.6 3.5-3.7 12.8-10.4 17.4-12.7 2.3-1.1 3.9-1.6 6.5-1.6 1.4 0 3.3.5 3.3 2.3-.2.9-.5 1.8-.9 2.4zm-6.5.9c-8.2 0-25.8 20.7-31.2 27.1-1.6 2-4.8 5.4-5.5 7.7.1.4.4.5.8.5 5.4 0 38-27.6 38-33.9-.1-.8-1.4-1.4-2.1-1.4z"/><path fill="#696057" d="M419.7 64.5c-1.1 6.5-8.4 12-13.1 16.1-.8.7-1.5 1.4-2.2 2.1-8.4 8.8-23.2 19.4-34.2 24.7-1 2.8-3.7 4.3-3.7 7.5 0 2.8 3.7 4.4 6 4.4.4 0 .7-.2 1-.3 2.6-.7 5.1-.6 7.7-1.7 3.1-1.3 8.3-6.1 10.7-6.6l.3.2c-.2 1.1-2.2 2.2-3.1 2.8-6.8 4.8-10.1 8-19 8-2.6 0-7.7-.3-7.7-3.9 0-2.3.5-6 1.5-8-1.8.3-8.9 3.4-9 3.4-.2 0-.3 0-.3-.1 0-.7.3-.9.8-1.3 2.5-2.1 5.9-2.6 8.4-4.3 1.4-.9 2.1-2.5 3.6-3.2 5.4-8.9 13.4-15.9 20.3-23.6 2-2.1 3.7-4.4 5.6-6.6 3.5-3.7 12.8-10.4 17.4-12.7 2.3-1.1 3.9-1.6 6.5-1.6 1.4 0 3.3.5 3.3 2.3 0 .9-.3 1.8-.8 2.4zm-6.4.9c-8.2 0-25.8 20.7-31.2 27.1-1.6 2-4.8 5.4-5.5 7.7.1.4.4.5.8.5 5.4 0 38-27.6 38-33.9-.1-.8-1.5-1.4-2.1-1.4z"/><path fill="#696057" d="M403.7 117.5c-1.4.5-2.8.8-4.2 1.2-2.8 4.9-4.8 6.5-10.5 6.5-.7 0-.9-.3-.9-.9 0-3.1 7.9-6.6 10.5-7.6.8-1.6 1.4-3.4 1.4-5.2 0-1.4-.3-2.9-.3-4.3-2.7 1-8.2 6-10.5 6-.2 0-.3.1-.3-.2.6-1.1 1-1.2 2-1.8 4.2-2.6 7.1-7.2 11-9.4.8-1.6 2-5 4.2-5 .8 0 2.3.4 2.3 1.4 0 2.6-3.4 4.6-5.4 5.6-.8 1.4-1.6 3-1.6 4.7 0 1.1.3 2.1.3 3.2 0 1.4-.3 2.8-.8 4.2 2.3-.7 4.7-1 6.8-2.2 1.8-.9 3.3-2.4 5.2-3.1l.2.3c-.9 1.2-7.8 6-9.4 6.6zm11.5-5.9c0-2.1 1.6-3.6 3.7-3.6s3.7 1.5 3.7 3.6c0 2-1.6 3.5-3.7 3.5s-3.7-1.5-3.7-3.5zm6.8-.1c0-1.7-1.3-2.9-3-2.9s-3 1.2-3 2.9 1.3 3 3.1 3c1.6 0 2.9-1.3 2.9-3zm-4.4-.5v-1.1c0-.2-.1-.3-.4-.3 0 0-.1 0-.1-.1s.1-.1.2-.1h1.6c.7 0 1.7.1 1.7 1.1 0 .4-.1.7-.7 1.2l.7.9c.5.6.7.7.8.7.1 0 .1 0 .1.1s0 .1-.3.1c-.5 0-.8 0-1.4-.8l-.6-.8h-.7v.4c0 .8 0 .9.1.9s.3.1.4.1c.1 0 .1 0 .1.1s-.1.1-.2.1h-1.7c-.1 0-.2 0-.2-.1s.1-.1.2-.1c.4 0 .4 0 .4-.2V111zm.7.5c.1.1.4.1.6.1.1 0 .3 0 .4-.1.2-.1.4-.3.4-.7 0-.6-.4-1-1-1 0 0-.3 0-.4.1v1.6z"/></svg>