<?xml version="1.0" encoding="utf-8"?>
<!-- Generator: Adobe Illustrator 18.0.0, SVG Export Plug-In . SVG Version: 6.00 Build 0)  -->
<!DOCTYPE svg PUBLIC "-//W3C//DTD SVG 1.1//EN" "http://www.w3.org/Graphics/SVG/1.1/DTD/svg11.dtd">
<svg version="1.1" id="Layer_1" xmlns="http://www.w3.org/2000/svg" xmlns:xlink="http://www.w3.org/1999/xlink" x="0px" y="0px"
	 viewBox="0 0 205.5 45.5" enable-background="new 0 0 205.5 45.5" xml:space="preserve">
<g>
	<polygon fill="#CC2027" points="200.9,0 189.7,24 185.5,14.9 180.9,14.9 187.9,29.8 191.6,29.8 205.5,0 	"/>
	<path fill="#010101" d="M152.8,44.6h9V28.1c0-3.8,2.2-6.4,5.5-6.4c3.1,0,4.8,2.2,4.8,5.3v17.6h9V25.2c0-6.6-3.9-11.2-10.3-11.2
		c-4.1,0-6.9,1.7-9,4.9h-0.2v-4.1h-8.8V44.6z M135,14.1c-9.5,0-15.8,6.8-15.8,15.7c0,8.9,6.3,15.7,15.8,15.7
		c9.5,0,15.8-6.8,15.8-15.7C150.8,20.9,144.5,14.1,135,14.1z M135,38.8c-4.3,0-6.6-3.6-6.6-9c0-5.5,2.3-9,6.6-9s6.7,3.5,6.7,9
		C141.7,35.3,139.3,38.8,135,38.8z M93.5,44.6h25.4v-7.1h-14.4v-0.2l13.7-15.4v-7H93.5V22h13.9v0.2L93.5,37.7V44.6z M81.9,44.6H91
		V14.9h-9.1V44.6z M60.8,44.6h9V31c0-6.2,3.7-8.9,9.4-8.2h0.2V15c-0.5-0.2-1-0.2-1.9-0.2c-3.5,0-5.9,1.6-7.9,5.1h-0.2v-4.9h-8.6
		V44.6z M44.2,38.9c-4,0-6.4-2.6-6.9-6.6h21.4c0.1-6.4-1.6-11.5-5.2-14.7c-2.5-2.3-5.8-3.6-10-3.6c-8.9,0-15.1,6.8-15.1,15.7
		c0,8.9,5.9,15.8,15.7,15.8c3.7,0,6.7-1,9.1-2.7c2.6-1.8,4.5-4.4,5-7h-8.7C48.6,37.7,46.9,38.9,44.2,38.9z M43.7,20.5
		c3.2,0,5.4,2.4,5.7,5.9H37.3C38,22.8,40,20.5,43.7,20.5z M10.3,44.6h9.5l10.3-29.7H21L15.2,34h-0.1L9.3,14.9H0L10.3,44.6z
		 M81.9,4.3H91v8.1h-9.1V4.3z"/>
</g>
</svg>
