<svg xmlns="http://www.w3.org/2000/svg" viewBox="0 34.6 500 237.2"><title>CIT Bank Logo</title><desc>Two-color, staked wordmark for CIT Bank</desc><path fill="#076BAC" d="M447.4 267.4V129.2H500V51.9H310.1v77.3h52.2v138.2"/><path fill="#076BAC" d="M225.4 129.2h84.9v138.3h-84.9z"/><path fill="#969799" d="M225.4 129.4V34.6h103.7"/><path fill="#076BAC" d="M114.5 271.8c53.4 0 98.2-36.5 110.7-86h-79.8c-7.8 8.5-18.8 13.7-30.9 13.7-23.4 0-42.1-18.8-42.1-42 0-23 18.8-41.8 42.1-41.8 12.2 0 23.2 5.3 30.9 13.7h79.8c-12.5-49.6-57.3-86-110.7-86C51.3 43.4 0 94.6 0 157.5c0 63.2 51.3 114.3 114.5 114.3"/></svg>