<svg xmlns="http://www.w3.org/2000/svg" viewBox="0 0 120.2 60.5"><title>Denny's Diner Logo</title><desc>One color Denny&apos;s wordmark</desc><path fill="#B41F24" d="M60.1 60.5L7.3 48 0 14.4 60.1 0l60.1 14.4-7.3 33.6-52.8 12.5zM9.7 45.6l50.4 12 50.4-12 6.3-29.1L60.1 2.9 3.4 16.5l6.3 29.1z"/><path fill="#B41F24" d="M39 39.2c-4.1.4-6.8-3.2-7.5-10.1C30.9 22.2 33 18 37 17.7c4.4-.4 6.9 2.7 7.5 9.6 0 .4.1 1 .1 1.5l-8 .7c0 .1.1.7.1.8.3 2.9 1 4.2 2.1 4.1.8-.1 1.4-1.4 1.5-2.9l4.3-.4c.1 4.7-2.1 7.8-5.6 8.1zm.8-13.4c-.2-2.5-.9-3.8-2.1-3.7-.9.1-1.6 1.5-1.4 4l3.5-.3zM96 23.6c-.1.1-.3.1-.2-.2.5-1 1.5-3.5 1.5-3.5-.2-.1-.5-.2-.8-.3-1.7-.7-1.7-2.6-1.6-3 .2-1.4 1.4-2.7 3-2.5 1.6.2 2.7 1.7 2.4 3.8-.4 3.4-2.6 4.4-4.3 5.7zM100.5 36.2c.9.2 1.7-.3 1.8-1.1.1-.7-.7-1.7-1.4-2.8-1.9-2.7-3.2-4.6-2.6-7.2.7-3.4 3.7-5.3 7.4-4.6 1.4.3 2.8 1 4.3 2.1l-1 4.7c-1.1-1.4-2.5-2.4-3.5-2.6-1.4-.3-2.4 1.1-1.4 2.7.3.4.7.9 1.1 1.4 2.1 2.6 3.3 4.2 2.7 7.2-.8 3.9-4 6-8.2 5.1-1.6-.3-3-1.1-4.4-2.5l1.1-5.6c1.6 1.8 3.2 3 4.1 3.2zM61 38l-.9-1.9-.5-13.6c-.1-3.6-1.5-5.4-3.8-5.3-1.8.1-3 1.2-3.9 3.6l-.1-3-6.5.3 1.3 2.1.6 16.1-1.2 2.3 6.5-.3-.5-12.6c0-1.3.5-2 1.1-2.1.7 0 1.1.6 1.2 1.8l.5 12.8L61 38zM15.3 17.2l-6.5 1.1 2 2.4L14.2 40l-1.1 2.9 8-1.4c6.8-1.2 9.4-5.9 8.1-14-1.3-7.2-4.4-11.9-13.9-10.3zm5.5 18.7c-.1 0-.4.1-1.2.2l-2.4-14c.8-.1 1.1-.1 1.2-.1 2.4-.4 3.7 2.2 4.4 6.5.8 4.2.3 7-2 7.4z"/><path fill="#B41F24" d="M95.1 19.4l-8.2-.7 1 2.2-3 11.9-1.2-12.2 1.2-2.1-8.2-.7 1.4 2.3 3.3 17.3-.9 3.4-1.9 2.4 6.7.6 8-22.4M76.9 38.6l-1.1-2 .3-13.6c.1-3.6-1.2-5.5-3.4-5.6-1.8-.1-3.1 1-4.2 3.3l.1-3-6.5-.2 1.2 2.2-.5 16.1-1 2.2 6.1.2.4-12.7c0-1.3.6-2 1.3-2 .7 0 1.1.6 1.1 1.9l-.4 12.8 6.6.4z"/><path fill-rule="evenodd" clip-rule="evenodd" fill="#B41F24" d="M92.7 44.5c.9 0 1.6-.7 1.6-1.6 0-.9-.7-1.6-1.6-1.6-.9 0-1.6.7-1.6 1.6 0 .9.7 1.6 1.6 1.6zm0-2.8c.6 0 1.2.5 1.2 1.2s-.6 1.2-1.2 1.2-1.2-.5-1.2-1.2.6-1.2 1.2-1.2zm-.3 1.3h.3l.4.7h.4l-.4-.7c.3 0 .5-.2.5-.5 0-.2 0-.4-.2-.5H92v1.8h.4V43zm0-.3v-.4h.4c.2 0 .3 0 .3.2s-.1.2-.3.2h-.4z"/></svg>