<svg xmlns="http://www.w3.org/2000/svg" width="258" height="44" viewBox="0 0 258 44.4"><path fill="#27bfea" d="M9.9 10.2C3.8 10.2 0 15.1 0 22.8c0 8.1 4 12.7 10.9 12.7 2.9 0 5.6-.6 7.3-1.7l.4-.2-1.4-3.4-.5.3c-1 .6-2.8 1.3-5.5 1.3-3.9 0-6.1-2.4-6.6-7l14.7-2.1v-.4c0-4.3-.9-7.5-2.9-9.6-1.6-1.6-3.8-2.5-6.5-2.5m-.1 3.5c2.1 0 4.8.7 4.9 6.5L4.5 21.7c0-3.1.7-5.4 2-6.7.9-.9 2-1.3 3.3-1.3M35.4 31.1c-1 .5-2.1.8-3.7.8-2.7 0-4.2-1.6-4.2-4.3V10.7h-4.8v16.7c0 5.3 3 8.1 8.8 8.1 4.2 0 7-1.1 8.5-1.9l.2-.1V10.7h-4.8v20.4zM52.3 10.3c-3.8 0-6.2.9-7.5 1.7l-.2.1v32.3h4.8V35c1 .2 2.1.4 3.2.4 6.6 0 10.7-4.9 10.7-12.9-.1-7.6-4.3-12.2-11-12.2m-3 3.7c.9-.3 1.8-.5 2.9-.5 4.2 0 6.2 2.9 6.2 9.2 0 3.5-.9 9.4-6.7 9.4-.9 0-1.7-.1-2.4-.4V14zM76.3 10.5c-1.6 0-3.2.4-4.9 1.1V0h-4.8v35.1h4.8V14.8c1.2-.7 2.4-1 4.1-1 2.9 0 4.3 1.3 4.3 4.1V35h4.8V17.9c-.1-1.8-.6-7.4-8.3-7.4M97.6 10.3c-6.1 0-9.6 4.6-9.6 12.7 0 7.9 3.6 12.6 9.7 12.6 6 0 9.6-4.7 9.6-12.6-.1-8.1-3.6-12.7-9.7-12.7m0 21.6c-3.3 0-4.9-2.9-4.9-9 0-6.2 1.6-9.2 4.9-9.2 3.3 0 4.8 2.9 4.8 9.2 0 6.1-1.5 9-4.8 9M110.9 12l-.3.1V35h4.8V14.4c1.2-.6 3.1-.7 4.7-.2l.5.1 1.3-4h-.7c-5.6-.1-7.9.5-10.3 1.7M126.4 2c-1.5 0-2.7 1.2-2.7 2.6 0 1.4 1.2 2.6 2.7 2.6 1.5 0 2.7-1.2 2.7-2.6 0-1.5-1.2-2.6-2.7-2.6M124 10.7h4.8v24.4H124zM141.2 10.2c-3.8 0-6.6 1.4-7.4 1.8l-.4.2 1.3 3.2.5-.2c1.3-.6 3.3-1.4 5.4-1.4 3.2 0 4.7 1.3 4.7 4.2v1c-6.5.7-13.1 2.4-13.1 9.2 0 4.8 3.3 7.4 9.4 7.4 3.2 0 6-.6 8-1.7l.3-.1V18.3c-.1-5.2-3.1-8.1-8.7-8.1m.7 22.1c-3.5 0-5.1-1.4-5.1-4.3 0-4.2 3-5.4 8.4-6.2v9.9c-.8.4-2 .6-3.3.6M255.5 10.9c.9 0 1.7-.7 1.8-1.6 0-.5-.1-.9-.4-1.3-.3-.4-.7-.6-1.2-.6-1-.1-1.9.6-2 1.6 0 .5.1.9.4 1.3.3.4.7.6 1.2.6h.2M255.9 16.6h.2c.4 0 .8-.1 1.2-.4.4-.3.6-.7.6-1.2s-.1-.9-.4-1.3c-.3-.4-.7-.6-1.2-.6h-.2c-.9 0-1.7.7-1.8 1.6 0 .5.1.9.4 1.3.3.4.7.6 1.2.6M257.6 19.6c-.3-.4-.8-.6-1.2-.6-1-.1-1.9.6-2 1.6 0 .5.1.9.4 1.3.3.4.7.6 1.2.6h.2c.4 0 .8-.1 1.2-.4.4-.3.6-.7.6-1.2s-.1-.9-.4-1.3M238.1 7.7c-.5 0-.9.3-1.2.6-.3.4-.4.8-.4 1.3.1.9.9 1.6 1.8 1.6h.2c.5 0 .9-.3 1.2-.6.3-.4.4-.8.4-1.3-.1-1-1-1.7-2-1.6M237.6 13.4c-.5 0-.9.3-1.2.6-.3.4-.5.8-.4 1.3.1.9.9 1.6 1.8 1.6h.2c.5 0 .9-.3 1.2-.6.3-.4.4-.8.4-1.3-.1-.9-1-1.6-2-1.6M237.7 19.3h-.2c-1 .1-1.7.9-1.6 1.9.1.9.9 1.6 1.8 1.6h.2c.5 0 .9-.3 1.2-.6.3-.4.4-.8.4-1.3-.1-.9-.9-1.6-1.8-1.6M252.1 3.9c-.4-.8-2.6-1.9-5.2-1.9s-4.9 1.1-5.2 1.9V4c-.1.8-3.4 19.2.1 24.5.6 1.5 2.7 2.6 5.2 2.6 2.4 0 4.6-1.1 5.2-2.6 3.5-5.3.2-23.7.1-24.5l-.2-.1zM244.8 35.7l4.1-.3h.2v-1l-4.3-.2M244.8 32.2v1.2l4.3.1v-1.3M244.9 37.9h4v-1.4l-4 .3M185.4 5.6c0-.3-.1-.5-.2-.7 0 0 0-.1-.1-.1v-.1l-.1-.1v-.1l-.1-.1-.1.1.1-.1h-.2c-.1 0-.1 0-.2.1l-.1.1.1.1-.1-.1-.1.1V5h.1-.1v.1c0 .2-.1.4-.1.7l-.5 16.2V22.3c0 .3 0 .4-.3.4s-.3-.1-.3-.4v-.2l-.9-16.5c0-1.2-.2-2.3-.6-2.7-.1-.1-.2-.2-.3-.2-.6 0-.8 1.1-.9 2.1l-.5 17.1V22.2c0 .3 0 .4-.3.4s-.3-.1-.3-.4V22l-.4-16.4v-.3c0-1.3-.4-2.6-1-2.6s-.9 1.4-.9 2.6L175.9 22V22.3c0 .3 0 .4-.3.4s-.3-.1-.3-.4v-.2L175 5.7v-.1c0-.6-.2-1.4-.6-1.4-.4 0-.7.7-.7 1.4-.9 7-1.8 19.9.6 23.8.2.4.5.9.9 1.2.2.4.5.7.7.9 2.6 2.6 2.5 4.9 2.5 4.9l.1 1.4h2.2l.1-1.4s-.1-2.4 2.5-4.9c.2-.2.5-.5.7-.9.4-.4.7-.8.9-1.2 3-4.8.6-23 .5-23.8M213.3 4.5c3 0 5.1-.6 5.1-1.2s-2.1-1.2-5.1-1.2c-3 0-5.1.6-5.1 1.2 0 .5 2.1 1.2 5.1 1.2"></path><path fill="#27bfea" d="M218.6 4.3c-.6.8-3 1.2-5.3 1.2s-4.7-.4-5.3-1.2c-.5 3-3.1 20 .1 25.1l1.2 1.6c.3.4.6.7.9 1 2.2 2.5 2 4.6 2 4.6l.1 1.3h2l.1-1.3s-.1-2.1 2-4.5l1.7-2.2.4-.5c3.2-5 .6-22.1.1-25.1m-5.3 5.8c2.8 0 5 .4 5 .9s-2.2.9-5 .9-5-.4-5-.9 2.2-.9 5-.9m4.8 15.1c-.5 1.4-2.7 2.4-4.8 2.4-2.1 0-4.3-1-4.8-2.4-1.2-5-.9-10.6-.4-13 .8.5 3.2.8 5.3.8 2 0 4.5-.3 5.3-.8.3 2.4.6 8.2-.6 13"></path></svg>
