<svg xmlns="http://www.w3.org/2000/svg" viewBox="0 0 310.1 52.4"><path d="M14.1 50.5c-.4-3.9-.9-7.8-1.3-11.7-1.2.3-2.3.6-3.5 1 .4 3.1.8 6.1 1.3 9l-6.9 2.4C2.5 41.2 1.3 31.1 0 21c2.6-.7 5.2-1.3 7.8-2 .1 4.4.3 8.1.5 11.3.1 1.2.2 2.5.3 3.7 1.1-.3 2.3-.7 3.4-1-.5-4.3-1-8.5-1.5-12.8 2.6-.6 5.2-1.3 7.8-1.9.1 5 .3 10 .7 14.9.4 5 1 10 1.9 14.9-2.2.8-4.5 1.6-6.8 2.4zM35.3 49.1c-.2-1.6-.3-3.2-.5-4.8-.6.3-1.6 1.1-2.8 2.1-.6.4-1.5 1.2-2.7 2.1-1.8-.7-3.5-1.4-5.3-2.1-.7-9-1.5-18-2.2-27l7.2-1.8c0 3.5.1 7.1.3 10.7.1 3.6.4 7.1.8 10.4 1.3-1 2.5-1.9 3.8-2.9-.6-5.7-1.2-11.4-1.7-17.1l7.2-1.8c.1 5 .2 10 .6 14.9.3 5 .9 10 1.7 15-2.1.8-4.3 1.5-6.4 2.3zM56.8 47.9l-.9-1.5c-.7-1-1.3-2-2-3-.8-1.2-1.9-2.9-3.2-5.1.3 3.3.7 6.6 1.2 9.8-2.1.8-4.3 1.6-6.4 2.4-1-10.8-2-21.6-3.1-32.4 2.4-.6 4.8-1.2 7.2-1.9.9 4.3 2.3 8.9 4.1 13.9.6 1.7 1.2 3 1.8 4L54 17.3c2.4-.6 4.8-1.2 7.2-1.7 0 5 .2 10 .4 14.9.3 5 .8 10 1.6 15-2.2.9-4.3 1.7-6.4 2.4zM81.8 45.5c-1.6 1.6-3.8 2.4-6.3 2.5-3.6.1-6.4-1.8-8.5-5.7-1.7-3.2-2.6-6.7-2.5-10.6 0-3.9.9-7.5 2.7-10.9 2.2-4.1 5.1-6.3 8.7-6.4 3.1-.1 5.8 1.5 8 4.8-1.2 1.8-2.4 3.5-3.6 5.3-.7-.7-1.6-1.1-2.7-1-2 .1-3.6 1.5-4.6 4.3-.8 2-1.1 4.3-1.2 6.8 0 1.8.4 3.3 1.1 4.5.9 1.4 2.2 2.1 3.9 2 1.4-.1 2.5-.7 3.3-2 .7-1 1.1-2.3 1.3-3.8-1.9.5-3.7 1-5.6 1.5-.1-2.1-.2-4.2-.3-6.4 3.7-1 7.3-1.9 11-2.8.3 1 .4 2.2.5 3.4v2.3c-.2 5-2 9.1-5.2 12.2zM105.3 43.1c-4 .5-9 1.6-15.2 3.5-.8-10.3-1.7-20.6-2.5-30.9 4.7-.9 9.5-1.7 14.2-2.6.5 2.7.9 5.3 1.4 8-2.7.3-5.2.7-7.8 1.1v2.4c0 .8 0 1.6.1 2.4 2.2-.6 4.5-1.1 6.7-1.7.4 2 .7 4 1.1 5.9-1.3.3-2.5.5-3.7.8-1.3.3-2.5.6-3.8.9 0 .6 0 1.1.1 1.7 0 .6.1 1.1.1 1.7 2.6-.5 5.2-.9 7.9-1.4.5 2.8 1 5.5 1.4 8.2zM121.1 45.3c-2.5-3.9-5-7.9-7.5-11.8.2 3.7.5 7.2.9 10.4-2.2.7-4.3 1.4-6.5 2-.1-1.9-.2-3.8-.4-5.7-.4-6.7-.9-13.4-1.3-20.1-.2-3-.3-4.5-.3-4.7 4.2-1.5 7.8-2.2 10.8-2.3 4-.1 6.4 1.3 7 3.9.1.7.2 1.3.2 1.9.1 3.3-1.6 6.6-5 9.9.9 1.4 2.2 3.1 3.7 5.2 1.2 1.7 2.5 3.4 3.8 5.1-1.1 1.4-2.9 3.4-5.4 6.2zm-5-23.9c-.7 0-1.6.3-2.8.7V25c0 1 0 1.9.1 2.9 1-.6 2-1.5 2.7-2.4 1-1.2 1.5-2.2 1.5-2.9 0-.8-.5-1.2-1.5-1.2zM196.8 23.5c-.7-.7-1.5-1.1-2.3-1.1-1.4 0-2.7 1.3-3.7 3.9-.9 2.2-1.3 4.1-1.3 5.9-.1 3.3.9 5.5 2.8 6.5.5.2.9.4 1.4.4 1.4 0 2.7-1.1 3.8-3.3.7 1.7 1.5 3.5 2.2 5.2-2.1 3.1-4.4 4.7-7.2 4.6-3.2-.1-5.7-2-7.5-5.9-1.5-3.2-2.2-6.7-2.1-10.5.1-3.8.9-7.2 2.6-10.4 2-3.8 4.7-5.7 7.9-5.7 2.8.1 5.2 1.7 7.1 5-1.3 1.8-2.5 3.6-3.7 5.4zM214.3 45.9c-2.1-4-4.2-8.1-6.3-12.1 0 3.7.1 7.2.4 10.5-2 .6-4 1.2-6 1.7 0-1.9 0-3.8-.1-5.8l-.3-20.1c-.1-3-.1-4.5 0-4.7 3.9-1.3 7.3-1.9 10-1.8 3.7.1 5.8 1.5 6.2 4.3.1.7.1 1.3.1 1.9-.1 3.3-1.8 6.5-5 9.6.8 1.5 1.8 3.2 3.1 5.3 1.1 1.8 2.1 3.5 3.2 5.2-1.2 1.4-2.9 3.4-5.3 6zm-3.5-24.1c-.6 0-1.5.2-2.6.6-.1 1-.1 1.9-.1 2.9v2.9c1-.6 1.8-1.4 2.6-2.3 1-1.2 1.5-2.1 1.5-2.9 0-.8-.4-1.2-1.4-1.2zM230.6 46.9v-4.8c-.6.3-1.5.9-2.7 1.8-.6.4-1.5 1-2.6 1.9-1.5-.6-3.1-1.1-4.6-1.7l.6-28.1c2.2-.4 4.5-.8 6.7-1.1-.3 3.5-.5 7.1-.7 10.7-.2 3.6-.3 7.1-.3 10.4 1.2-.8 2.5-1.6 3.7-2.5V16.3c2.2-.4 4.5-.7 6.7-1.1-.4 5-.7 9.9-.9 14.9-.2 5-.1 10 .2 15.1-2.1.6-4.1 1.1-6.1 1.7zM249.8 47.7c-.2-.5-.5-1-.7-1.5-.5-1.1-1-2.1-1.5-3.2-.6-1.3-1.5-3.1-2.4-5.4 0 3.3 0 6.6.2 9.9l-6 1.8.3-32.5c2.2-.4 4.5-.8 6.7-1.2.4 4.4 1.2 9.1 2.4 14.2.4 1.7.8 3.1 1.2 4.1.1-5.6.1-11.2.2-16.8 2.2-.4 4.5-.7 6.7-1-.5 5-.8 9.9-1 14.9-.2 5-.2 10 0 15.1-2.1.6-4.1 1.1-6.1 1.6zM272.4 26.5c-.7-.7-1.4-1.1-2.3-1.2-1.4-.1-2.7 1.2-3.9 3.8-.9 2.1-1.5 4.1-1.6 5.9-.2 3.3.6 5.5 2.6 6.6.5.2.9.4 1.4.4 1.4.1 2.7-.9 3.9-3.1.7 1.8 1.3 3.5 2 5.3-2.2 3.1-4.6 4.5-7.3 4.3-3.2-.2-5.6-2.3-7.2-6.2-1.3-3.2-1.9-6.7-1.7-10.5.2-3.8 1.2-7.2 3-10.3 2.1-3.7 4.9-5.5 8.1-5.4 2.8.2 5.1 1.9 6.9 5.3-1.4 1.7-2.7 3.4-3.9 5.1zM286.4 49.9l.3-11.7c-1.1.2-2.2.3-3.3.5-.1 3.1-.1 6.2 0 9.1-2.2.5-4.3 1-6.5 1.5.2-10.2.5-20.4.7-30.5 2.4-.3 4.9-.6 7.3-.9-.5 4.4-.8 8.1-1 11.2-.1 1.2-.2 2.5-.2 3.7 1.1-.2 2.1-.4 3.2-.5.1-4.3.2-8.6.4-12.9 2.4-.3 4.9-.6 7.3-.9-.6 5-1 9.9-1.3 14.9-.3 5-.4 10-.2 15.1-2.3.4-4.5.9-6.7 1.4zM302.7 51.2c-.9.7-1.9 1.1-3 1.2-1.1.1-2-.2-2.8-.8-.9-.6-1.3-1.6-1.2-2.7.1-1.1.6-2.1 1.6-2.9.9-.7 1.9-1.1 3-1.2 1.1-.1 2 .2 2.9.8.9.7 1.3 1.6 1.2 2.8-.2 1-.7 2-1.7 2.8zm7.4-31.3c-1.8 4.6-3.1 7.9-3.7 10-1 3.2-1.8 6.6-2.4 10.5-1.9-.2-3.8-.5-5.6-.7 1-7.3 2.1-14.6 3.1-21.9 2.9.7 5.8 1.4 8.6 2.1zM173.1 3.4C167.2 1 160.8 0 154.3 0c-6.4 0-12.8 1-18.8 3.4-3.5 1.4-6.6 2.9-6.2 7.1.2 2 .2 4.1.3 6.1.4 4.7.9 9.4 1.9 14 .4 1.9.9 3.9 2 5.6 1.5 2.5 4.2 4.5 6.5 6.2 1.9 1.4 3.8 2.8 5.8 4.1 2.5 1.7 5.3 4.2 8.6 4.1 3.2 0 6-2.5 8.5-4.2 2-1.3 3.9-2.7 5.8-4.1 2.3-1.8 4.9-3.7 6.4-6.2 1-1.7 1.5-3.7 2-5.6 1-4.6 1.5-9.3 1.9-14.1.2-2 .2-4.1.3-6.1.4-4-2.6-5.6-6.2-6.9zm-22.3 9.4c.6-3 1.3-6 1.9-9 .7 3 1.4 6.1 2.1 9.1.8-3.3 1.6-6.5 2.4-9.8.3 4.4.6 8.8.9 13.1-1 .1-2 .1-3 .2.2 2.6.3 5.3.5 7.9-1.8-1.2-3.5-2.5-5.3-3.7-.1-1.3-.1-2.6-.2-3.9-.8.1-1.6.1-2.3.2-.2-4.1-.5-8.1-.7-12.2 1.3 2.8 2.5 5.5 3.7 8.1zm-8.5 26.6c-1.2-1.3-2.4-2.7-3.6-4 2.9-2.1 5.8-4.2 8.8-6.3.8.6 1.5 1.2 2.3 1.8 0 .7.1 1.5.1 2.2-4.1 3.4-7.6 6.3-7.6 6.3zm12.4 6.4h-.4c-2.1 0-2.7-2-2.7-2-.2-4-.4-8-.6-11.9 2.3 1.7 4.3 3.2 5.4 4 .2 2.6.3 5.3.5 7.9 0 0 .3 1.7-2.2 2zm12.5-7c-2.4-2-4.7-3.9-7.1-5.9l-2.1 2.7s-10.2-7-15-12.1c-3.5-3.7-7.9-8.1-8.3-12.2.7.2 28.5 19.6 28.5 19.7 2.3 1.6 4.5 3.2 6.8 4.7-.9 1.1-1.8 2.1-2.8 3.1zm3.4-17.8c-1.9 1.4-3.8 1.7-5.3 1.6-1 0-1.7-.1-1.9-.1h-.1c-.1 0-2.2 1.6-4.9 3.8-.5-.3-1-.7-1.5-1.1-.1-.9-.1-1.8-.2-2.7 1.4-1 2.7-1.9 4.1-2.9 0 0-1-3.9 2.4-6.9 1.6-1.4 3.3-1.9 4.8-1.9 1.7 0 3.2.7 3.9 1.5 2.1 2.3 2 6.3-1.3 8.7z"/></svg>